<?xml version="1.0" standalone="no"?>
<!DOCTYPE svg PUBLIC "-//W3C//DTD SVG 20010904//EN"
 "http://www.w3.org/TR/2001/REC-SVG-20010904/DTD/svg10.dtd">
<svg version="1.0" xmlns="http://www.w3.org/2000/svg"
 width="1085.000000pt" height="610.000000pt" viewBox="0 0 1085.000000 610.000000"
 preserveAspectRatio="xMidYMid meet">

<g transform="translate(0.000000,610.000000) scale(0.100000,-0.100000)"
fill="#000000" stroke="none">
<path d="M0 3050 l0 -3050 5425 0 5425 0 0 1342 c0 1044 -3 1339 -12 1330 -18
-18 -31 -14 -25 8 6 23 -14 43 -37 34 -21 -8 -20 -20 5 -55 24 -34 19 -60 -18
-89 -30 -23 -85 -26 -102 -6 -7 8 -27 18 -44 21 -51 10 -147 47 -147 56 0 5 9
9 20 9 11 0 27 8 34 18 8 9 31 37 51 61 28 34 33 46 24 57 -17 20 5 18 76 -7
72 -25 71 -24 54 -45 -13 -16 -12 -16 8 -6 28 16 86 15 101 0 9 -9 12 -2 12
34 0 40 -3 45 -18 41 -16 -4 -18 1 -16 43 2 27 -1 53 -6 59 -4 5 -10 26 -12
45 -3 34 -4 35 -40 33 -21 -1 -52 -10 -70 -19 -19 -10 -33 -13 -36 -6 -2 6
-16 6 -43 0 -33 -9 -39 -14 -33 -31 6 -18 3 -19 -27 -13 -39 8 -54 20 -44 36
5 8 11 8 21 -1 21 -18 29 -3 9 17 -16 17 -16 18 5 26 12 4 26 6 31 2 5 -3 9 2
9 10 0 9 5 16 10 16 6 0 10 -3 10 -8 0 -16 45 -27 76 -17 36 10 65 45 39 45
-13 0 -13 3 -3 13 7 8 17 14 23 15 5 1 29 5 53 10 24 5 45 6 48 1 3 -5 0 -9
-6 -9 -6 0 -8 -5 -4 -11 16 -27 24 25 24 169 l0 154 -55 -48 c-37 -31 -59 -44
-66 -37 -12 12 44 91 74 103 21 8 20 9 -13 23 -19 8 -77 28 -128 43 -50 15
-92 30 -92 34 0 17 114 150 128 150 4 0 36 -9 70 -20 35 -11 68 -20 73 -20 5
0 9 68 9 154 l0 154 -50 12 c-56 13 -67 24 -50 45 16 19 30 19 30 1 0 -8 14
-17 31 -21 35 -8 52 2 26 16 -21 12 -22 48 -2 55 13 5 15 107 15 835 l0 829
-688 0 c-378 0 -693 0 -699 0 -10 0 -13 48 -13 205 l0 205 -4725 0 -4725 0 0
-3050z m6593 2542 c10 -14 -31 -52 -57 -52 -32 0 -32 7 -4 37 21 23 52 30 61
15z m-596 -154 c-3 -8 -6 -5 -6 6 -1 11 2 17 5 13 3 -3 4 -12 1 -19z m-5276
-109 c22 -45 43 -78 46 -75 4 3 25 39 47 78 l42 73 68 3 c38 2 75 1 83 -2 16
-6 8 -25 -62 -141 -104 -174 -99 -160 -105 -280 l-5 -110 -75 1 -75 1 -3 106
-3 106 -84 148 c-47 81 -85 154 -85 161 0 9 24 12 85 12 l85 0 41 -81z m4826
-20 c68 -25 92 -42 45 -33 -23 5 -38 2 -50 -9 -20 -18 -30 -13 -55 25 -29 46
-24 48 60 17z m-4247 -50 c86 -49 122 -159 85 -268 -41 -123 -205 -169 -328
-91 -63 40 -82 78 -82 170 0 88 27 147 83 182 71 44 171 46 242 7z m883 19
c14 -12 15 -20 4 -73 -12 -59 -13 -60 -42 -57 -23 2 -37 -4 -55 -23 -23 -24
-25 -37 -30 -137 l-5 -110 -73 0 -74 0 1 193 c0 107 4 195 8 196 4 1 30 3 56
6 43 4 49 2 61 -21 l13 -26 12 23 c21 38 90 54 124 29z m478 -17 l28 -21 11
20 c10 18 19 21 63 18 l52 -3 0 -205 c0 -113 -3 -217 -7 -232 -12 -40 -57 -89
-103 -109 -56 -26 -175 -25 -232 1 -24 10 -43 23 -43 28 0 16 41 102 48 102 4
0 27 -7 51 -16 69 -23 141 1 141 49 0 15 -4 17 -17 11 -33 -14 -98 -15 -137
-2 -106 36 -145 201 -75 314 43 70 155 93 220 45z m502 0 c52 -32 67 -73 67
-181 0 -83 2 -92 20 -97 30 -8 29 -86 -2 -107 -32 -23 -90 -20 -122 5 -23 18
-28 19 -41 5 -9 -8 -31 -18 -50 -22 -89 -16 -163 30 -172 107 -10 91 53 148
165 149 53 0 63 8 37 30 -15 12 -72 10 -121 -5 -17 -5 -25 1 -43 30 -27 46
-27 61 2 76 80 44 199 48 260 10z m453 19 c15 -6 34 -20 42 -31 l14 -20 22 20
c67 62 173 50 223 -26 15 -23 18 -50 18 -188 l0 -160 -75 0 -75 1 -5 134 c-5
127 -6 135 -26 138 -38 6 -49 -23 -54 -152 l-5 -121 -65 -1 c-36 0 -69 1 -75
3 -6 2 -9 46 -7 114 5 136 0 159 -33 159 -13 0 -27 -6 -32 -12 -4 -7 -10 -69
-13 -138 l-5 -125 -75 0 -75 0 0 200 0 200 35 -1 c19 -1 47 -2 63 -3 18 -1 27
-6 27 -18 0 -15 1 -15 18 0 38 35 106 46 158 27z m678 -22 c55 -36 78 -85 74
-160 l-3 -63 -112 -3 c-62 -1 -113 -7 -113 -12 0 -17 44 -40 78 -40 18 0 47 7
64 16 34 17 37 16 67 -40 27 -47 19 -60 -52 -81 -104 -31 -213 -10 -266 51
-96 109 -46 311 88 355 43 14 137 2 175 -23z m374 17 c28 -9 54 -20 57 -25 4
-6 -1 -31 -11 -56 -17 -44 -19 -45 -48 -39 -125 27 -145 9 -33 -29 93 -31 102
-42 102 -121 0 -75 -20 -104 -92 -131 -78 -30 -233 -2 -233 43 0 8 5 33 12 55
11 39 12 39 47 32 49 -11 110 -11 113 0 2 4 -24 17 -57 27 -91 29 -115 55
-115 128 0 31 7 49 31 76 48 54 129 69 227 40z m-3068 -130 c4 -104 8 -130 21
-138 13 -8 24 -6 43 6 26 17 26 19 26 137 l0 120 75 0 75 0 -2 -197 -3 -198
-42 -3 c-33 -2 -44 1 -56 18 l-14 21 -37 -22 c-30 -17 -48 -21 -101 -17 -115
7 -135 45 -135 251 0 79 2 146 4 148 3 3 36 4 73 3 l68 -2 5 -127z m5033 106
c120 -69 -81 -328 -320 -412 -143 -50 -254 -6 -234 94 6 29 11 33 51 39 156
23 312 131 370 256 l25 53 40 -7 c22 -3 53 -14 68 -23z m-874 -54 c-2 -1 -35
-29 -74 -61 l-70 -59 68 68 c37 37 70 65 74 61 3 -3 4 -7 2 -9z m-211 -148
c32 -6 33 -7 9 -8 -34 -1 -97 24 -97 39 0 6 11 3 26 -6 14 -10 42 -21 62 -25z
m2050 -79 c2 -17 -6 -34 -23 -50 -14 -13 -25 -29 -25 -37 0 -7 -7 -13 -15 -13
-8 0 -15 5 -15 10 0 6 -9 10 -19 10 -45 0 -37 60 12 91 44 27 81 22 85 -11z
m-201 -230 c3 -11 14 -20 24 -20 11 0 19 -4 19 -10 0 -5 7 -7 15 -4 8 4 22 1
30 -6 8 -6 19 -9 26 -5 6 4 14 3 18 -4 4 -6 25 -12 46 -14 22 -2 41 -7 43 -11
1 -3 -7 -19 -19 -35 -18 -25 -24 -28 -40 -18 -11 7 -17 18 -14 24 2 7 0 13 -5
13 -6 0 -10 -4 -10 -10 0 -5 -16 -10 -35 -10 -19 0 -35 4 -35 9 0 5 -10 11
-22 13 -13 2 -22 9 -20 16 3 15 -15 16 -20 0 -3 -7 -11 -9 -24 -3 -10 4 -22 7
-26 7 -5 -1 -8 5 -8 13 0 9 -6 12 -15 9 -23 -9 -18 10 10 40 29 31 55 34 62 6z
m-2347 -14 c0 -3 -4 -8 -10 -11 -5 -3 -10 -1 -10 4 0 6 5 11 10 11 6 0 10 -2
10 -4z m-2085 -41 c28 -27 30 -42 14 -79 -22 -47 -117 -60 -150 -20 -21 25
-14 86 11 106 33 27 95 24 125 -7z m4729 -58 c-1 -9 2 -17 7 -17 5 0 9 5 9 10
0 6 9 10 20 10 11 0 20 -4 20 -8 0 -4 15 -9 33 -10 17 -1 37 -8 42 -16 6 -7
16 -11 23 -8 7 2 20 1 30 -4 9 -4 25 -6 35 -5 9 1 17 -3 17 -8 0 -6 -4 -11
-10 -11 -5 0 -10 -8 -10 -19 0 -20 -42 -38 -48 -21 -2 6 -15 10 -28 10 -13 0
-24 4 -24 10 0 5 -7 7 -15 4 -8 -4 -15 -2 -15 2 0 5 -15 10 -32 11 -18 2 -45
8 -60 14 -19 8 -32 8 -47 -1 -22 -11 -41 -6 -41 11 0 6 5 7 10 4 6 -3 10 1 10
9 0 21 41 57 60 53 8 -1 14 -10 14 -20z m-214 -77 c129 -40 273 -83 320 -97
47 -13 157 -46 245 -73 88 -27 394 -119 680 -205 286 -86 531 -160 545 -165
14 -4 89 -27 168 -51 78 -23 142 -45 142 -49 0 -4 -71 -90 -157 -191 -134
-156 -266 -312 -443 -522 -19 -23 -125 -148 -234 -277 -110 -129 -219 -260
-244 -290 -71 -86 -55 -84 -220 -23 -81 30 -201 74 -267 98 -66 24 -318 116
-560 205 -242 89 -525 193 -630 232 -104 38 -244 89 -310 114 -66 24 -178 65
-249 91 -71 27 -131 53 -132 58 -2 6 89 114 202 240 113 127 357 400 542 608
229 256 341 376 352 372 8 -2 121 -36 250 -75z m-6663 -31 c60 -29 73 -59 73
-166 0 -93 4 -105 33 -116 16 -6 18 -14 12 -50 -9 -53 -19 -65 -59 -72 -32 -6
-86 8 -97 26 -3 5 -25 1 -53 -12 -63 -28 -115 -19 -161 27 -94 93 -26 214 120
214 47 0 56 3 53 16 -7 39 -51 42 -138 10 -10 -4 -22 8 -37 39 -13 25 -23 47
-23 50 0 7 62 38 95 46 61 15 137 10 182 -12z m441 13 c10 -7 10 -21 -1 -73
-13 -62 -14 -64 -42 -62 -64 6 -85 -36 -85 -166 l0 -101 -75 0 c-43 0 -75 4
-75 10 0 6 -1 94 -1 198 l0 187 55 3 c51 3 57 1 67 -22 l12 -25 27 29 c22 23
37 30 67 30 21 0 44 -4 51 -8z m311 -12 c72 -36 105 -104 93 -190 l-7 -45
-114 -5 c-109 -5 -114 -6 -97 -22 33 -33 78 -33 162 -1 9 3 20 -10 34 -42 11
-26 20 -49 20 -51 0 -10 -85 -42 -127 -49 -96 -15 -208 36 -239 111 -8 19 -14
64 -14 101 0 99 36 162 115 198 45 21 129 19 174 -5z m571 -5 c20 -18 22 -19
31 -2 8 13 23 17 64 17 l55 0 0 -210 c0 -240 -7 -271 -69 -314 -46 -32 -92
-46 -149 -46 -55 0 -152 28 -158 45 -3 8 4 35 15 60 18 41 24 46 43 40 13 -4
48 -9 79 -12 49 -4 60 -2 78 16 29 29 28 55 -1 47 -56 -16 -77 -17 -116 -7
-60 16 -108 70 -123 136 -22 99 7 183 81 233 29 20 44 23 92 20 38 -3 64 -11
78 -23z m541 -10 c24 -17 52 -45 62 -63 28 -47 34 -141 13 -196 -52 -135 -239
-177 -348 -78 -49 44 -68 89 -68 159 0 138 85 217 227 211 61 -3 78 -8 114
-33z m695 19 c57 -27 64 -52 64 -234 l0 -160 -75 0 -74 0 -3 128 -3 127 -25 3
c-15 2 -35 -6 -49 -19 -22 -21 -23 -27 -19 -130 l3 -109 -78 0 -77 0 2 198 3
197 47 3 c40 3 48 0 59 -20 6 -13 13 -25 15 -27 1 -1 13 7 26 19 13 12 32 26
43 30 33 14 105 11 141 -6z m363 -5 c31 -18 35 -19 43 -5 7 12 24 16 63 16
l55 0 0 -197 c0 -111 -5 -216 -11 -238 -22 -80 -107 -135 -209 -135 -59 0
-149 27 -157 46 -3 8 2 35 12 60 16 42 20 45 44 40 71 -18 121 -18 146 -2 29
19 36 62 8 51 -61 -23 -132 -11 -182 31 -94 79 -75 285 30 337 48 23 116 22
158 -4z m-769 1 c0 -5 1 -94 1 -197 l0 -188 -75 -3 -76 -3 0 194 c0 106 3 197
7 200 10 11 143 8 143 -3z m-1822 -852 l-3 -283 -72 -3 -73 -3 0 286 0 285 75
0 75 0 -2 -282z m-313 113 c79 -36 105 -85 105 -192 0 -147 -66 -219 -202
-219 l-48 0 0 -70 0 -70 -75 0 -75 0 0 275 0 275 54 0 c36 0 58 -5 66 -15 11
-14 15 -14 29 -1 42 38 89 43 146 17z m654 -9 c62 -30 75 -60 79 -177 4 -89 7
-104 22 -108 15 -4 18 -12 13 -48 -3 -24 -12 -50 -21 -56 -22 -18 -93 -16
-120 3 -21 15 -26 14 -59 -1 -68 -33 -165 -6 -192 53 -6 13 -11 43 -11 68 0
37 6 51 28 74 31 31 95 52 146 50 46 -3 48 -2 35 21 -9 18 -17 20 -52 16 -23
-3 -54 -8 -69 -12 -23 -6 -30 -2 -53 34 -29 46 -27 54 16 77 70 36 172 38 238
6z m418 13 c74 -22 79 -33 48 -94 -22 -45 -28 -50 -45 -41 -10 5 -37 10 -59
10 -48 0 -71 -26 -71 -81 0 -65 74 -101 128 -64 21 15 23 14 52 -32 17 -26 29
-52 27 -57 -8 -24 -91 -56 -144 -56 -131 0 -214 82 -214 213 -1 100 46 170
137 202 51 18 79 18 141 0z m395 -17 c48 -27 78 -77 83 -141 7 -88 8 -87 -122
-87 l-115 0 14 -22 c20 -30 105 -37 141 -13 19 12 26 13 34 3 22 -28 44 -80
39 -93 -9 -25 -113 -48 -188 -43 -126 9 -188 77 -188 208 0 106 42 170 134
207 42 17 119 8 168 -19z m404 7 c38 -16 41 -26 18 -80 -15 -36 -16 -37 -52
-29 -90 19 -133 -1 -52 -24 86 -25 110 -40 127 -79 29 -70 0 -142 -70 -174
-66 -29 -192 -23 -240 13 -15 12 -15 17 -1 66 14 48 18 53 38 47 40 -13 126
-18 126 -7 0 10 -26 22 -91 42 -64 19 -85 57 -81 143 2 36 49 81 99 96 46 12
132 6 179 -14z m7092 -36 c19 -11 38 -17 42 -14 10 6 100 -21 140 -42 14 -7
35 -13 47 -13 23 0 74 -19 83 -31 3 -4 19 -9 35 -11 23 -2 31 -9 33 -26 3 -22
5 -22 21 -8 12 11 27 14 49 10 30 -6 42 -18 24 -26 -5 -1 -66 -73 -136 -158
-71 -85 -132 -156 -136 -158 -5 -2 -11 11 -15 28 -6 27 -2 37 26 67 21 22 27
34 17 30 -11 -4 -18 -1 -18 6 -1 7 -9 2 -20 -11 -23 -27 -40 -21 -40 14 0 29
-23 31 -85 9 -58 -21 -74 -19 -81 11 -5 21 -11 24 -30 20 -75 -18 -69 -21 -83
32 l-14 49 -36 -12 c-82 -28 -179 -55 -201 -55 -20 0 -16 7 36 63 72 76 208
235 213 249 5 15 90 0 129 -23z m-6858 -239 c48 -48 2 -139 -63 -126 -17 4
-38 13 -45 20 -21 20 -19 82 3 106 24 26 78 27 105 0z m6449 -63 c-15 -82 9
-108 124 -132 16 -3 45 -16 65 -29 33 -20 88 -37 162 -50 14 -2 39 -10 55 -16
17 -7 44 -14 60 -17 17 -3 32 -7 34 -9 2 -2 -8 -26 -23 -53 -32 -62 -34 -86
-7 -72 14 8 22 7 31 -4 10 -12 9 -15 -4 -15 -9 0 -16 -8 -16 -20 0 -11 5 -20
12 -20 9 0 9 -3 0 -12 -7 -7 -12 -18 -12 -26 0 -37 -121 -82 -140 -52 -7 11
-13 10 -34 -4 -28 -18 -36 -42 -11 -32 14 5 13 2 0 -24 -15 -29 -25 -34 -52
-31 -7 1 -13 -3 -13 -9 0 -16 -17 -12 -24 6 -7 17 17 69 38 81 8 5 13 24 12
52 -1 42 1 45 41 66 l41 23 7 -49 c4 -27 11 -49 16 -49 4 0 5 -8 2 -17 -6 -15
-5 -16 9 -3 10 9 12 17 6 21 -6 4 -9 36 -6 77 2 39 0 68 -4 66 -4 -3 -14 9
-23 26 -9 17 -21 30 -28 29 -7 -1 -41 -1 -76 0 -57 1 -63 3 -58 20 5 19 -10
31 -37 31 -7 0 -31 -12 -52 -27 -26 -17 -50 -26 -71 -24 -18 1 -53 -8 -77 -19
-25 -11 -55 -20 -68 -19 -13 0 -40 -3 -61 -7 -37 -7 -38 -6 -32 18 4 17 -1 31
-19 51 -14 16 -26 34 -26 42 0 15 123 142 188 193 23 19 49 47 59 62 9 16 18
28 19 27 1 -1 -2 -24 -7 -50z m266 -17 c3 -5 -1 -10 -10 -10 -9 0 -13 5 -10
10 3 6 8 10 10 10 2 0 7 -4 10 -10z m-129 -11 c5 -9 -1 -10 -20 -5 -26 6 -37
-7 -13 -18 6 -3 1 -3 -13 0 -31 8 -34 10 -25 23 8 15 62 14 71 0z m244 1 c0
-5 -2 -10 -4 -10 -3 0 -8 5 -11 10 -3 6 -1 10 4 10 6 0 11 -4 11 -10z m-108
-42 c75 -25 98 -36 98 -50 0 -21 11 -23 28 -6 15 15 15 3 1 -24 l-11 -21 35
21 c44 28 51 28 43 -3 -7 -29 -3 -31 19 -9 22 22 33 9 12 -14 -10 -10 -14 -22
-10 -25 12 -12 -22 -7 -47 8 -14 8 -35 14 -48 15 -15 0 -26 9 -33 27 -7 20
-13 23 -21 15 -15 -15 -45 -15 -50 0 -3 7 -24 12 -51 13 -54 1 -66 9 -49 35
16 25 15 30 -3 30 -8 0 -19 -9 -25 -20 -6 -11 -15 -20 -21 -20 -6 0 -5 9 3 23
7 12 11 25 10 30 -4 13 19 8 120 -25z m-3423 -98 c24 -12 22 -16 -126 -178
l-48 -54 -87 33 c-49 19 -88 36 -88 39 0 4 43 54 95 113 l95 106 69 -24 c38
-12 78 -28 90 -35z m4476 -22 c-7 -32 -53 -81 -67 -71 -18 10 -5 40 29 70 21
18 39 32 41 33 2 0 0 -15 -3 -32z m-5857 -37 c22 -11 61 -27 87 -36 18 -5 17
-8 -10 -31 -39 -34 -24 -42 18 -10 35 27 54 24 36 -4 -17 -28 -9 -32 19 -10
23 19 27 20 30 6 3 -12 10 -15 23 -11 27 9 24 -7 -8 -37 l-28 -26 -45 21 c-25
11 -56 22 -70 24 -38 6 -46 20 -25 43 25 28 10 38 -18 12 -30 -28 -42 -28 -23
0 20 28 20 38 1 38 -8 0 -15 -6 -15 -14 0 -21 -28 -39 -47 -31 -17 6 -17 7 0
19 9 7 17 18 17 24 0 6 8 16 18 21 21 13 19 13 40 2z m5937 -1 c23 -9 25 -13
15 -25 -7 -8 -24 -15 -39 -15 -18 0 -22 -3 -13 -9 11 -7 10 -10 -3 -15 -45
-17 -71 19 -39 55 19 21 40 24 79 9z m-4445 -21 c0 -6 -7 -8 -16 -5 -8 3 -24
1 -35 -4 -20 -11 -26 -40 -8 -40 5 0 7 -4 4 -10 -3 -5 -13 -10 -21 -10 -23 0
-17 47 8 64 26 18 68 21 68 5z m30 -39 c0 -5 8 -9 18 -9 28 1 72 -7 78 -14 3
-3 -4 -10 -15 -17 -12 -6 -21 -18 -21 -28 1 -14 4 -13 20 6 16 19 25 22 55 16
33 -6 36 -9 32 -33 l-5 -26 23 30 c13 16 26 27 29 25 2 -3 -9 -21 -25 -40 -17
-19 -33 -30 -35 -24 -3 6 -16 9 -29 6 -27 -5 -34 15 -13 36 17 17 -2 15 -22
-3 -9 -8 -25 -12 -38 -8 -21 5 -22 7 -7 29 23 35 18 39 -10 7 -13 -15 -25 -23
-25 -16 0 6 5 15 10 18 6 3 10 11 10 17 0 6 -11 1 -25 -12 -14 -13 -25 -18
-25 -12 0 8 -9 10 -25 6 -21 -5 -25 -3 -25 14 0 24 36 53 56 45 8 -3 14 -9 14
-13z m4201 -6 c9 -8 35 -15 57 -16 32 0 41 -5 46 -21 6 -22 -9 -47 -28 -47 -6
0 -24 7 -40 15 -36 19 -45 19 -67 -1 -16 -14 -19 -13 -37 6 -11 12 -18 28 -15
36 3 9 -2 14 -18 14 l-24 1 25 14 c33 19 79 19 101 -1z m-376 -54 c32 -11 66
-20 77 -20 10 0 18 -4 18 -9 0 -19 -39 -21 -81 -6 -24 9 -54 19 -66 22 -13 3
-23 12 -23 19 0 18 6 18 75 -6z m-565 -50 c-12 -8 -50 -43 -85 -77 -34 -35
-67 -63 -73 -63 -7 0 -12 -4 -12 -9 0 -9 -83 -41 -107 -41 -20 0 -16 24 7 38
11 7 20 20 20 30 0 10 15 33 34 51 19 19 32 40 29 47 -3 10 3 14 19 14 13 0
39 11 59 24 44 30 88 36 112 16 18 -14 18 -15 -3 -30z m-3010 13 c-15 -20 -18
-29 -9 -32 7 -2 23 9 36 25 12 16 23 23 23 17 0 -23 -43 -63 -67 -63 -30 0
-30 26 -1 57 30 32 44 29 18 -4z m3874 3 c25 -1 33 -26 9 -26 -10 0 -28 -3
-39 -6 -14 -4 -23 0 -28 11 -8 23 3 38 23 30 9 -4 25 -8 35 -9z m-3789 -6 c-3
-5 -1 -10 4 -10 18 0 12 -21 -11 -41 -13 -10 -18 -18 -12 -19 6 0 19 9 29 20
18 20 41 28 31 11 -4 -5 3 -7 13 -4 29 7 64 -15 58 -38 -3 -12 0 -19 9 -19 8
0 14 7 14 15 0 17 16 20 25 5 8 -12 -20 -60 -35 -60 -4 0 -15 6 -22 13 -7 8
-19 12 -27 9 -9 -3 -8 4 5 24 l18 29 -27 -24 c-19 -18 -27 -20 -27 -10 0 8 6
21 13 29 6 8 0 4 -14 -8 -17 -15 -29 -20 -34 -13 -3 6 -17 11 -31 11 -29 0
-29 3 -7 38 l17 27 -27 -24 c-33 -30 -35 -20 -4 19 20 26 56 43 42 20z m2635
-13 c0 -28 -17 -47 -42 -47 -13 0 -18 8 -18 26 l0 27 -23 -34 c-12 -18 -34
-39 -47 -46 -22 -11 -26 -10 -34 7 -13 28 1 70 24 70 10 0 22 5 25 10 3 6 31
10 61 10 50 0 54 -2 54 -23z m1065 13 c3 -5 -3 -10 -15 -10 -12 0 -18 5 -15
10 3 6 10 10 15 10 5 0 12 -4 15 -10z m-4142 -35 c-3 -9 -8 -14 -10 -11 -3 3
-2 9 2 15 9 16 15 13 8 -4z m2887 6 c0 -12 -20 -25 -27 -18 -7 7 6 27 18 27 5
0 9 -4 9 -9z m1347 -27 c-9 -9 -28 6 -21 18 4 6 10 6 17 -1 6 -6 8 -13 4 -17z
m-3577 -39 c0 -8 6 -12 14 -9 18 7 28 -9 20 -31 -4 -10 -14 -15 -25 -12 -12 3
-16 0 -12 -9 6 -17 -10 -18 -40 -1 -12 6 -24 13 -25 14 -2 1 6 15 19 32 24 33
49 41 49 16z m3215 -1 l37 -15 -33 -18 c-46 -25 -48 -46 -7 -60 29 -10 34 -9
50 11 10 13 16 31 14 41 -5 20 -4 20 45 5 40 -11 53 -28 22 -28 -9 0 -33 -19
-55 -42 l-38 -41 -25 23 c-18 17 -36 24 -63 23 -52 -2 -54 3 -26 44 14 22 22
44 18 55 -7 23 11 23 61 2z m-880 -4 c-3 -5 -11 -10 -16 -10 -6 0 -7 5 -4 10
3 6 11 10 16 10 6 0 7 -4 4 -10z m-2211 -16 c22 -9 20 -24 -4 -24 -13 0 -18
-5 -14 -15 4 -11 0 -15 -16 -15 -19 0 -20 -2 -10 -15 10 -13 9 -15 -8 -15 -35
0 -36 20 -1 56 18 19 34 34 35 34 1 0 9 -3 18 -6z m3677 -17 c-13 -13 -26 -3
-16 12 3 6 11 8 17 5 6 -4 6 -10 -1 -17z m-338 -8 c-11 -62 -40 -149 -50 -149
-7 0 -10 -7 -6 -16 5 -13 13 -9 40 22 18 22 36 52 39 67 4 17 12 26 19 23 7
-2 32 -10 55 -17 46 -14 82 -52 73 -77 -24 -67 -89 -107 -162 -99 -25 2 -53 8
-63 11 -12 6 -22 -5 -41 -46 -19 -39 -26 -47 -26 -30 -1 17 -6 22 -18 18 -10
-2 -51 -14 -91 -26 -88 -25 -110 -24 -89 5 12 15 32 21 96 26 45 4 88 12 95
18 8 7 22 43 31 82 17 68 17 71 -1 84 -23 17 -30 18 -55 5 -11 -6 -19 -7 -19
-2 0 6 29 29 64 52 36 23 70 48 77 56 14 17 35 13 32 -7z m-3809 -4 c3 -8 1
-15 -4 -15 -6 0 -10 7 -10 15 0 8 2 15 4 15 2 0 6 -7 10 -15z m2505 6 c12 -8
9 -11 -11 -16 -32 -8 -57 3 -37 16 18 11 30 11 48 0z m-1970 -28 c-9 -11 -10
-14 -1 -9 17 10 15 -5 -4 -32 -14 -20 -42 -33 -30 -14 3 5 -8 6 -25 4 -56 -8
-27 55 31 67 42 9 47 7 29 -16z m3666 17 c8 -13 -5 -13 -25 0 -13 8 -13 10 2
10 9 0 20 -4 23 -10z m-1055 -55 c-6 -15 -13 -25 -16 -22 -4 3 0 20 7 37 17
37 24 25 9 -15z m-3040 15 c0 -11 -4 -20 -10 -20 -5 0 -10 9 -10 20 0 11 5 20
10 20 6 0 10 -9 10 -20z m485 11 c3 -6 -1 -13 -8 -18 -7 -4 -20 -18 -29 -31
-23 -35 -30 -11 -8 26 20 32 34 40 45 23z m1665 -13 c0 -16 -3 -19 -11 -11 -6
6 -8 16 -5 22 11 17 16 13 16 -11z m-1647 -15 c-10 -17 -11 -23 -3 -15 19 16
60 15 60 -2 0 -9 8 -12 24 -9 34 7 42 -14 15 -43 -24 -26 -41 -25 -19 1 7 9
10 19 6 23 -4 4 -16 -3 -26 -15 -20 -25 -37 -19 -18 6 10 13 10 14 -2 4 -19
-18 -60 -16 -60 2 0 9 -6 12 -17 8 -16 -6 -15 -3 2 18 19 22 46 48 53 49 1 0
-5 -12 -15 -27z m1832 17 c3 -5 1 -10 -4 -10 -6 0 -11 5 -11 10 0 6 2 10 4 10
3 0 8 -4 11 -10z m201 -15 c-11 -8 -22 -12 -25 -9 -6 6 19 24 34 24 6 -1 1 -7
-9 -15z m828 -32 c-9 -38 -9 -38 -54 -23 -45 15 -53 30 -15 30 14 0 25 5 25
10 0 6 11 10 25 10 23 0 25 -3 19 -27z m-1194 -15 c0 -17 -3 -18 -14 -8 -8 6
-12 18 -9 26 7 19 23 7 23 -18z m467 26 c-3 -3 -12 -4 -19 -1 -8 3 -5 6 6 6
11 1 17 -2 13 -5z m73 -4 c0 -5 -7 -10 -16 -10 -8 0 -12 5 -9 10 3 6 10 10 16
10 5 0 9 -4 9 -10z m773 -17 c4 -3 2 -12 -4 -19 -6 -8 -8 -21 -5 -30 5 -13 2
-15 -18 -10 -14 3 -38 11 -53 18 l-28 12 28 4 c16 2 31 10 34 18 5 14 34 19
46 7z m-6425 -11 c-3 -6 -30 -79 -46 -122 -3 -8 -4 -19 -3 -24 1 -5 -5 -23
-13 -41 -8 -17 -12 -42 -9 -55 4 -16 3 -21 -5 -16 -7 4 -12 1 -12 -8 0 -8 5
-18 10 -21 6 -3 10 -12 10 -18 0 -7 -4 -6 -11 3 -14 20 -4 -88 13 -127 13 -34
19 -53 20 -73 1 -8 7 -24 14 -35 8 -11 14 -27 14 -36 0 -10 16 -38 35 -63 19
-26 35 -51 35 -56 0 -6 9 -10 19 -10 11 0 22 -8 25 -18 3 -9 15 -23 27 -30 26
-16 39 -3 39 40 0 69 30 79 31 11 1 -54 8 -78 27 -79 29 -2 33 -5 27 -14 -3
-5 23 -24 59 -42 36 -17 63 -35 60 -40 -3 -4 2 -5 10 -2 9 3 16 1 16 -4 0 -6
10 -14 23 -18 12 -3 48 -22 79 -41 31 -19 61 -32 66 -29 6 3 12 3 14 -1 5 -12
124 -73 142 -73 9 0 16 -4 16 -10 0 -5 6 -10 13 -10 7 0 32 -9 55 -20 22 -11
46 -20 52 -20 6 0 8 -5 4 -12 -5 -8 0 -9 15 -5 14 3 24 0 28 -9 3 -8 11 -14
19 -14 13 0 97 -43 122 -63 6 -5 12 -6 12 -3 0 4 34 -11 75 -34 41 -23 75 -39
75 -36 0 8 104 -47 108 -56 2 -5 8 -8 14 -8 6 0 38 -13 72 -29 33 -16 71 -32
84 -36 12 -3 22 -11 22 -16 0 -5 6 -9 13 -9 7 0 46 -16 86 -36 41 -20 79 -37
86 -38 7 -1 23 -9 36 -17 44 -29 136 -69 157 -69 12 0 21 -6 20 -12 -2 -7 6
-13 16 -13 11 0 21 -6 24 -13 2 -6 0 -12 -4 -12 -3 0 -95 43 -203 96 -108 53
-212 102 -231 109 -19 7 -111 50 -205 95 -196 94 -210 100 -370 174 -66 31
-119 60 -118 66 2 5 -3 7 -11 4 -8 -3 -55 16 -106 41 -120 60 -370 168 -440
189 -30 9 -62 21 -71 26 -21 11 -172 40 -208 40 -57 0 -112 94 -130 219 -8 64
-3 156 15 246 7 38 59 184 89 250 12 28 25 60 29 73 4 12 12 22 18 22 5 0 8
-3 6 -8z m5479 -18 c-2 -3 -18 -6 -34 -8 -39 -5 -73 -27 -73 -46 0 -8 -4 -22
-10 -30 -8 -12 -10 -12 -15 2 -9 23 15 77 31 71 7 -3 20 0 29 5 17 9 81 15 72
6z m333 -2 c0 -5 -12 -19 -26 -33 l-27 -24 17 33 c15 29 36 43 36 24z m-710
-16 c0 -3 -4 -8 -10 -11 -5 -3 -10 -1 -10 4 0 6 5 11 10 11 6 0 10 -2 10 -4z
m530 -52 c-64 -29 -111 -44 -104 -33 13 21 64 45 101 47 l38 2 -35 -16z m30
-70 c0 -8 -4 -12 -10 -9 -5 3 -10 10 -10 16 0 5 5 9 10 9 6 0 10 -7 10 -16z
m-165 -4 c-3 -5 -12 -10 -18 -10 -7 0 -6 4 3 10 19 12 23 12 15 0z m-280 -10
c3 -5 1 -10 -4 -10 -6 0 -11 -11 -11 -24 0 -32 -17 -42 -25 -16 -13 40 20 82
40 50z m-3505 -40 c0 -4 -8 -7 -17 -6 -12 1 -17 -5 -15 -16 2 -12 -4 -18 -16
-18 -10 0 -23 -5 -30 -12 -7 -7 -12 -8 -12 -3 0 17 63 73 76 68 8 -3 14 -9 14
-13z m3985 10 c-3 -5 -11 -10 -16 -10 -6 0 -7 5 -4 10 3 6 11 10 16 10 6 0 7
-4 4 -10z m1025 -4 c0 -2 -9 -6 -20 -9 -11 -3 -20 -1 -20 4 0 5 9 9 20 9 11 0
20 -2 20 -4z m-4990 -36 c0 -5 9 -10 20 -10 11 0 20 -4 20 -9 0 -5 18 -11 40
-15 22 -3 40 -10 40 -14 0 -10 -38 -52 -47 -52 -3 0 2 9 12 20 22 24 9 27 -17
3 -10 -9 -18 -11 -18 -5 0 6 5 14 10 17 6 3 10 11 10 17 0 6 -7 5 -16 -3 -19
-16 -72 -21 -80 -8 -3 5 0 18 6 29 13 25 3 26 -23 3 -20 -18 -20 -18 -2 10 17
26 45 37 45 17z m3977 -22 c-3 -8 -6 -5 -6 6 -1 11 2 17 5 13 3 -3 4 -12 1
-19z m757 -60 c-4 -13 -10 -25 -13 -28 -3 -3 -11 -18 -16 -34 -11 -31 -39 -55
-51 -43 -11 10 35 97 51 97 7 0 15 7 19 15 9 24 18 17 10 -7z m-4571 -31 c-8
-14 -63 -38 -63 -27 0 5 4 10 10 10 5 0 17 15 26 32 15 30 18 31 24 13 4 -11
6 -23 3 -28z m4197 33 c0 -5 -5 -10 -11 -10 -5 0 -7 5 -4 10 3 6 8 10 11 10 2
0 4 -4 4 -10z m327 -8 c-10 -10 -17 -21 -17 -25 0 -7 -51 -59 -94 -95 -32 -27
-46 -23 -19 6 10 10 40 44 66 75 27 32 55 57 64 57 15 0 14 -2 0 -18z m-4450
-18 c3 -8 9 -11 14 -8 13 8 11 -10 -3 -24 -9 -9 -9 -12 -1 -12 7 0 15 5 18 10
9 15 27 12 19 -2 -6 -10 -4 -10 7 0 16 14 39 16 39 2 0 -5 -7 -10 -15 -10 -7
0 -18 -6 -22 -14 -11 -18 -73 -9 -73 10 0 10 -7 13 -26 8 -23 -6 -25 -4 -22
22 2 16 7 32 12 35 12 10 47 -2 53 -17z m4607 11 c-6 -16 -22 -19 -48 -9 -28
11 -17 24 19 24 26 0 33 -3 29 -15z m-1274 -46 c-12 -22 -30 -25 -30 -6 0 17
21 38 32 31 4 -3 3 -14 -2 -25z m420 11 c0 -12 -30 -24 -82 -34 -54 -10 -47 7
10 26 57 20 72 21 72 8z m-3621 -40 c-34 -42 -39 -46 -39 -31 0 10 58 71 66
71 3 0 -10 -18 -27 -40z m76 -7 c4 -16 11 -23 20 -19 8 3 17 1 20 -3 6 -10
-23 -23 -35 -16 -5 3 -12 0 -16 -6 -4 -8 -3 -9 4 -5 7 4 12 3 12 -3 0 -5 -4
-13 -10 -16 -5 -3 -10 -1 -10 5 0 6 -8 9 -17 6 -10 -3 -25 -1 -33 4 -12 8 -10
14 14 39 15 16 25 34 22 40 -4 7 -1 9 8 5 8 -3 17 -17 21 -31z m3976 27 c24 0
25 -27 2 -34 -29 -8 -93 -5 -99 5 -3 5 4 9 14 9 11 0 23 7 26 16 4 10 12 14
22 10 9 -3 24 -6 35 -6z m-4041 -45 c-13 -14 -26 -23 -28 -20 -3 3 5 16 18 30
13 14 26 23 28 20 3 -3 -5 -16 -18 -30z m920 -6 c0 -5 5 -7 10 -4 6 3 10 1 10
-5 0 -6 4 -9 9 -6 14 9 42 -5 34 -17 -4 -7 0 -8 11 -4 14 5 17 3 12 -8 -6 -17
9 -21 19 -5 9 14 25 12 25 -3 0 -7 -6 -21 -13 -30 -10 -15 -17 -16 -45 -6 -18
6 -29 15 -25 22 4 7 0 8 -11 4 -14 -6 -17 -3 -12 8 4 13 2 14 -14 5 -13 -7
-20 -7 -20 -1 0 6 -7 8 -15 5 -18 -7 -19 -3 -3 31 11 25 28 34 28 14z m-770
-21 c0 -19 -41 -57 -56 -51 -24 9 -16 33 12 33 19 0 25 4 20 15 -3 9 0 15 9
15 8 0 15 -5 15 -12z m3890 -3 c0 -6 21 -31 46 -55 71 -70 99 -141 54 -137
-11 1 -20 5 -20 10 0 5 -6 4 -14 -2 -11 -9 -16 -5 -27 21 -23 57 -78 132 -106
147 -18 9 -23 16 -14 19 7 2 17 -2 22 -9 7 -11 9 -11 9 2 0 12 8 16 25 15 14
0 25 -6 25 -11z m-3838 -34 c-2 -20 0 -22 13 -11 9 7 18 10 21 7 3 -3 -13 -19
-37 -36 -47 -35 -62 -34 -30 0 21 23 28 49 13 49 -4 0 -18 -8 -31 -17 -18 -12
-22 -13 -16 -2 18 32 29 40 49 37 16 -2 20 -9 18 -27z m4383 19 c33 -5 80 -16
105 -23 l45 -13 -46 -49 -46 -49 -37 22 c-45 27 -50 27 -44 4 5 -17 2 -17 -18
-8 -23 11 -27 33 -6 29 7 -2 10 10 9 27 -2 25 -7 31 -34 36 -18 3 -49 4 -68 2
-42 -5 -46 6 -7 20 36 14 74 14 147 2z m-3442 -44 c17 -5 17 -7 3 -22 -9 -8
-16 -20 -16 -25 0 -5 -9 -9 -20 -9 -22 0 -27 16 -8 22 13 5 4 38 -11 38 -5 0
-17 -7 -26 -16 -9 -9 -19 -13 -23 -10 -3 4 -2 10 4 14 6 4 13 15 17 25 6 17 9
17 34 3 16 -8 36 -17 46 -20z m3007 19 c0 -8 4 -15 9 -15 11 0 25 -39 18 -47
-11 -10 -60 45 -54 61 8 20 27 21 27 1z m-4810 -94 c100 -44 105 -48 108 -79
3 -27 -3 -39 -32 -67 -57 -54 -79 -53 -208 3 -126 55 -135 67 -99 126 22 35
72 66 106 65 11 0 67 -22 125 -48z m1918 27 c2 -4 8 -6 13 -2 5 3 9 1 9 -4 0
-10 38 -25 55 -22 6 0 -1 -10 -15 -24 -33 -33 -75 -26 -66 10 4 15 2 24 -5 24
-6 0 -13 -9 -16 -20 -7 -25 -8 -25 -44 1 -16 11 -29 17 -29 13 0 -4 -3 -4 -7
-1 -3 4 2 16 11 26 14 15 26 18 54 14 21 -4 39 -10 40 -15z m255 -49 c25 -41
-48 -119 -111 -119 -65 0 -67 72 -4 115 42 29 98 31 115 4z m3078 -10 c27 -14
24 -31 -12 -65 -18 -16 -30 -22 -27 -14 4 14 -34 43 -74 56 -14 5 -15 9 -5 18
26 26 76 28 118 5z m-5095 -134 c-7 -18 5 -20 23 -2 10 10 11 9 6 -5 -8 -21
-28 -29 -45 -18 -11 7 -11 11 -1 24 17 20 25 21 17 1z m2224 1 c9 -12 8 -15
-7 -14 -10 1 -29 -2 -43 -7 -25 -8 -25 -8 -6 14 22 25 39 27 56 7z m-2172 -30
c-27 -27 -34 -26 -18 3 6 12 17 21 26 21 11 0 9 -6 -8 -24z m2233 -19 c-7 -18
-15 -25 -26 -21 -21 8 -19 19 8 37 28 19 30 16 18 -16z m-2188 -15 c-5 -12 -7
-12 -15 2 -11 20 1 44 12 25 5 -6 6 -19 3 -27z m2113 11 c-10 -10 -19 5 -10
18 6 11 8 11 12 0 2 -7 1 -15 -2 -18z m132 3 c-2 -1 -14 -10 -27 -21 -14 -11
-22 -15 -19 -10 3 6 8 18 11 27 4 11 12 15 22 12 9 -4 15 -7 13 -8z m-3835
-32 c32 -8 66 -14 74 -14 9 0 39 -11 67 -24 28 -13 92 -41 141 -62 50 -21 99
-44 110 -52 19 -13 19 -13 -5 -8 -14 3 -43 8 -64 11 -30 5 -36 9 -25 17 10 7
7 8 -13 4 -16 -4 -43 0 -65 10 -63 27 -133 43 -166 38 -25 -4 -46 3 -94 33
-33 21 -72 46 -85 56 -23 17 -23 17 22 12 25 -4 71 -13 103 -21z m3887 5 c0
-5 4 -8 9 -5 5 4 11 0 14 -6 3 -10 7 -10 19 -1 26 22 28 2 3 -23 -30 -30 -38
-30 -29 -2 6 20 5 21 -9 9 -14 -11 -19 -11 -31 2 -11 11 -12 17 -3 26 14 14
27 14 27 0z m-2275 -9 c3 -5 1 -10 -4 -10 -6 0 -11 5 -11 10 0 6 2 10 4 10 3
0 8 -4 11 -10z m5355 7 c0 -2 -16 -18 -35 -37 -19 -19 -35 -31 -35 -27 0 4 14
21 30 37 28 27 40 35 40 27z m-2986 -50 c-8 -28 -11 -30 -22 -23 -7 4 -6 15 1
30 14 29 31 23 21 -7z m71 3 c3 -5 0 -10 -8 -10 -8 0 -17 -7 -21 -15 -3 -8
-10 -15 -16 -15 -6 0 -3 11 6 25 17 27 29 31 39 15z m235 -122 c-11 -12 -23
-19 -26 -15 -9 9 15 37 33 37 10 0 8 -6 -7 -22z m70 -8 c0 -16 -38 -40 -54
-34 -15 6 -15 9 5 30 19 20 49 23 49 4z m-3915 0 c3 -5 -1 -10 -9 -10 -9 0
-16 5 -16 10 0 6 4 10 9 10 6 0 13 -4 16 -10z m3935 -13 c0 -2 -10 -12 -22
-23 l-23 -19 19 23 c18 21 26 27 26 19z m45 -7 c3 -5 -1 -10 -9 -10 -8 0 -18
-9 -21 -20 -3 -11 -13 -20 -21 -20 -16 0 -12 12 14 43 17 19 28 22 37 7z
m-3928 -6 c-3 -3 -12 -4 -19 -1 -8 3 -5 6 6 6 11 1 17 -2 13 -5z m3970 -22
c10 -6 10 -12 -2 -28 -12 -15 -16 -16 -24 -5 -5 7 -14 10 -21 6 -8 -5 -7 0 2
14 14 22 25 26 45 13z m59 -17 c9 -21 -14 -45 -42 -45 -30 0 -30 7 -2 37 25
27 36 29 44 8z m46 -23 c-7 -2 -12 -12 -12 -23 0 -13 -7 -19 -22 -18 -13 0
-17 3 -10 6 6 2 12 13 12 23 0 19 19 31 35 22 5 -3 4 -7 -3 -10z m223 -21 c39
-22 42 -51 10 -89 -48 -57 -120 -63 -177 -14 -23 20 -23 37 3 73 40 57 99 68
164 30z m-1412 -244 c9 -27 -1 -55 -10 -29 -3 7 -11 19 -19 26 -19 20 -18 38
3 34 9 -2 21 -16 26 -31z m-6422 -113 c190 -56 307 -239 279 -435 -12 -83 -62
-180 -119 -231 -60 -53 -156 -98 -225 -105 l-56 -6 0 76 0 75 43 7 c122 21
208 118 209 239 1 124 -91 225 -227 248 -18 3 -20 12 -23 76 l-3 72 34 0 c18
0 58 -7 88 -16z m4961 -190 c15 -8 36 -14 47 -14 21 0 85 -49 65 -50 -6 0 -17
7 -24 15 -7 8 -18 15 -25 15 -7 0 -41 14 -76 30 -35 17 -53 28 -39 24 14 -4
37 -13 52 -20z m-4997 -18 c111 -47 144 -202 63 -291 -68 -76 -162 -91 -238
-39 -64 43 -83 74 -88 144 -6 77 22 135 82 173 48 30 127 35 181 13z m6929
-40 c29 -14 56 -31 59 -39 8 -22 -15 -59 -49 -79 -31 -18 -33 -18 -87 3 -31
12 -63 30 -73 40 -15 16 -15 20 2 48 33 55 71 62 148 27z m-1747 -26 c21 -11
43 -20 49 -20 6 0 19 -9 30 -21 17 -19 14 -18 -30 5 -27 14 -54 26 -60 26 -15
1 -53 30 -38 30 7 0 29 -9 49 -20z m-4522 0 c22 -8 24 -13 15 -30 -9 -16 -15
-18 -37 -9 -29 11 -63 3 -63 -14 0 -7 24 -24 53 -38 47 -22 52 -28 55 -61 2
-29 -2 -40 -24 -57 -15 -12 -41 -21 -60 -21 -33 0 -84 18 -84 29 1 19 21 28
64 27 62 -1 71 18 19 41 -58 26 -73 43 -73 79 0 55 64 81 135 54z m223 -17 c3
-20 -1 -23 -32 -23 l-35 0 -3 -92 c-3 -85 -5 -93 -23 -93 -18 0 -20 8 -23 93
l-3 92 -29 0 c-32 0 -45 13 -36 36 5 12 23 14 93 12 83 -3 88 -4 91 -25z m182
2 c0 -23 -3 -25 -49 -25 -28 0 -53 -5 -56 -10 -12 -20 17 -40 57 -40 32 0 39
-3 36 -17 -2 -13 -15 -19 -46 -21 -37 -3 -42 -6 -42 -28 0 -22 4 -24 50 -24
47 0 50 -2 50 -25 0 -24 -2 -25 -64 -25 -99 0 -96 -4 -96 120 0 77 4 110 13
113 6 3 42 6 80 6 65 1 67 0 67 -24z m148 12 c18 -21 84 -206 77 -217 -11 -18
-35 -10 -47 15 -9 21 -18 25 -53 25 -35 0 -44 -4 -53 -25 -12 -27 -52 -35 -52
-11 0 8 15 54 34 102 18 49 36 97 39 107 7 20 40 23 55 4z m195 -72 l39 -80
29 70 c35 82 45 95 71 95 17 0 18 -8 16 -117 -3 -110 -4 -118 -23 -118 -17 0
-21 8 -25 58 l-5 59 -24 -56 c-30 -71 -49 -72 -83 -3 l-27 52 0 -51 c-1 -38
-5 -54 -17 -58 -9 -3 -20 -4 -25 0 -5 3 -9 57 -9 120 0 114 0 115 23 112 17
-2 31 -22 60 -83z m392 75 c57 -13 85 -49 85 -109 0 -33 -6 -56 -20 -73 -23
-30 -90 -51 -145 -46 l-40 3 -3 104 c-1 58 0 111 2 118 6 15 62 17 121 3z
m280 -25 c0 -29 -2 -30 -48 -33 -54 -4 -55 -22 -1 -22 31 0 34 -2 34 -30 0
-28 -2 -30 -40 -30 -56 0 -50 -18 8 -22 45 -3 47 -4 47 -33 -1 -30 -1 -30 -65
-33 -111 -5 -108 -9 -108 115 0 60 2 112 5 116 3 4 41 6 86 5 l82 -3 0 -30z
m200 25 c25 -9 25 -11 10 -40 -13 -25 -19 -29 -45 -23 -54 10 -87 -38 -55 -81
11 -15 22 -17 52 -13 32 5 41 3 52 -15 17 -27 -1 -46 -52 -55 -49 -8 -84 3
-113 34 -19 21 -24 36 -24 82 0 58 15 87 55 109 25 14 86 15 120 2z m115 -27
l1 -38 30 38 c26 31 37 37 70 37 49 0 50 -15 4 -60 -19 -19 -35 -37 -35 -42 0
-4 18 -33 40 -64 22 -31 37 -61 34 -65 -6 -11 -65 -12 -79 -1 -6 4 -20 23 -32
42 -23 36 -29 32 -35 -20 -3 -21 -8 -25 -38 -25 l-35 0 -1 110 c0 61 1 113 3
118 2 4 20 7 39 7 33 0 34 -1 34 -37z m2915 -33 c-3 -5 -11 -10 -16 -10 -6 0
-7 5 -4 10 3 6 11 10 16 10 6 0 7 -4 4 -10z m50 -30 c8 -13 -5 -13 -25 0 -13
8 -13 10 2 10 9 0 20 -4 23 -10z m1713 3 c-10 -2 -18 -13 -18 -23 0 -24 -18
-36 -33 -20 -9 9 -9 11 3 8 8 -2 15 4 16 12 2 28 4 30 27 29 16 -1 18 -2 5 -6z
m-1652 -31 c-7 -7 -46 9 -46 18 0 5 11 4 25 -2 14 -6 23 -13 21 -16z m1694 11
c-23 -9 -37 -27 -32 -41 4 -12 -10 -17 -21 -6 -12 12 25 54 47 53 14 0 16 -2
6 -6z m-1655 -23 c3 -5 -1 -10 -9 -10 -9 0 -16 5 -16 10 0 6 4 10 9 10 6 0 13
-4 16 -10z m1696 -24 c-9 -16 -19 -22 -33 -18 -19 4 -18 6 8 28 32 28 43 24
25 -10z m-1651 -1 c7 -8 19 -15 27 -15 20 0 85 -31 78 -38 -2 -3 -20 2 -37 11
-18 9 -48 22 -65 29 -18 7 -33 16 -33 20 0 13 17 9 30 -7z m1715 4 c4 -5 -1
-19 -11 -30 -13 -15 -20 -16 -31 -8 -11 10 -11 15 3 30 19 22 30 24 39 8z m38
-26 c-22 -4 -27 -13 -24 -42 2 -7 -2 -10 -8 -6 -26 16 -1 56 34 54 18 -2 18
-2 -2 -6z m42 -33 c5 -8 12 -7 23 2 13 12 14 10 4 -9 -16 -29 -32 -38 -32 -19
0 19 -11 21 -28 4 -7 -7 -12 -8 -12 -2 0 12 21 34 31 34 4 0 11 -5 14 -10z
m-1608 -33 c26 -12 55 -27 63 -32 8 -5 24 -11 34 -12 28 -5 33 -13 8 -13 -16
0 -144 60 -161 76 -10 9 10 2 56 -19z m2303 3 c0 -11 -7 -20 -15 -20 -8 0 -15
9 -15 20 0 11 7 20 15 20 8 0 15 -9 15 -20z m-364 -42 c39 -18 50 -29 52 -50
4 -37 -36 -78 -77 -78 -34 0 -134 41 -146 59 -11 19 15 70 44 86 31 18 62 14
127 -17z m-1779 -33 c0 -10 -6 -14 -14 -10 -8 3 -18 5 -21 6 -4 0 2 4 13 9 11
5 20 9 21 9 0 1 1 -6 1 -14z m2243 1 c0 -2 -7 -9 -15 -16 -12 -10 -15 -10 -15
4 0 9 7 16 15 16 8 0 15 -2 15 -4z m-2184 -32 c19 -9 34 -20 34 -25 0 -6 -56
20 -79 38 -12 9 15 1 45 -13z m74 -34 c0 -5 -5 -10 -11 -10 -5 0 -7 5 -4 10 3
6 8 10 11 10 2 0 4 -4 4 -10z m35 -20 c3 -6 -1 -7 -9 -4 -18 7 -21 14 -7 14 6
0 13 -4 16 -10z m1770 -1 c9 -14 -24 -49 -47 -49 -11 0 -18 7 -18 20 0 30 51
53 65 29z m50 -19 c3 -5 3 -15 -1 -21 -4 -8 -9 -7 -15 2 -7 11 -9 9 -9 -5 0
-11 -3 -16 -7 -13 -3 4 -13 1 -21 -6 -13 -10 -14 -9 -7 3 13 24 37 50 46 50 4
0 11 -4 14 -10z m33 -45 c-28 -29 -32 -27 -16 7 7 14 18 23 25 21 9 -4 7 -12
-9 -28z m-1683 -16 c43 -27 24 -23 -32 7 -26 14 -37 22 -23 18 14 -3 39 -15
55 -25z m1701 -17 c-17 -16 -18 -16 -5 5 7 12 15 20 18 17 3 -2 -3 -12 -13
-22z m81 11 c8 -20 -31 -55 -52 -46 -20 7 -19 22 2 45 20 22 42 23 50 1z m47
-35 c3 -14 -1 -29 -9 -38 -13 -13 -15 -11 -15 9 0 20 -2 21 -15 11 -20 -17
-19 -1 2 22 21 24 29 23 37 -4z m72 -10 c5 -8 2 -9 -9 -5 -13 5 -17 1 -17 -18
0 -28 -17 -42 -33 -26 -8 8 -7 11 6 11 11 0 14 5 10 16 -9 25 29 45 43 22z
m-1771 -8 c4 -6 11 -7 17 -4 7 4 8 2 4 -4 -5 -9 -13 -9 -29 -1 -31 16 -33 19
-14 19 9 0 19 -5 22 -10z m2764 -9 c11 -7 1 -25 -44 -80 -31 -39 -61 -71 -66
-71 -28 0 -16 36 31 95 54 68 57 70 79 56z m-678 -42 c60 -60 -64 -190 -149
-158 -32 12 -42 26 -42 57 0 85 135 157 191 101z m-1800 -86 c13 -17 13 -17
-6 -3 -11 8 -22 16 -24 17 -2 2 0 3 6 3 6 0 17 -8 24 -17z m54 -23 c3 -5 1
-10 -4 -10 -6 0 -11 5 -11 10 0 6 2 10 4 10 3 0 8 -4 11 -10z m64 -36 c14 -12
-19 -1 -35 12 -18 14 -18 14 6 3 14 -6 27 -13 29 -15z m1791 16 c0 -5 -7 -7
-15 -4 -11 5 -14 0 -13 -17 2 -19 -2 -24 -22 -26 -16 -1 -18 0 -7 4 11 3 16
11 13 20 -3 8 -4 19 0 24 7 12 44 12 44 -1z m430 0 c0 -5 -4 -10 -9 -10 -6 0
-13 5 -16 10 -3 6 1 10 9 10 9 0 16 -4 16 -10z m-385 -20 c4 -6 -1 -7 -11 -3
-13 5 -16 3 -11 -10 4 -11 1 -17 -9 -17 -8 0 -12 -4 -9 -10 3 -5 -1 -10 -9
-10 -20 0 -20 6 2 35 18 26 37 32 47 15z m15 -45 c-6 -8 -9 -19 -5 -25 3 -5 2
-10 -4 -10 -20 0 -22 20 -4 44 10 13 20 20 21 15 2 -5 -1 -16 -8 -24z m-1740
-1 c33 -15 59 -29 57 -31 -2 -2 -33 10 -68 26 -80 37 -72 40 11 5z m1825 6 c3
-5 1 -10 -5 -10 -17 0 -42 -28 -35 -40 3 -5 2 -10 -4 -10 -20 0 -22 20 -4 45
19 26 38 32 48 15z m55 -31 c0 -5 -5 -7 -10 -4 -15 9 -42 -15 -36 -32 3 -7 1
-13 -4 -13 -17 0 -19 17 -4 38 16 23 54 30 54 11z m53 -16 c2 -5 -8 -18 -23
-31 l-28 -22 11 30 c11 28 30 39 40 23z m-1784 -27 c10 -12 8 -13 -8 -9 -12 3
-18 9 -15 14 7 12 10 11 23 -5z m205 -101 c11 -8 16 -15 10 -15 -5 0 -18 7
-28 15 -11 8 -16 15 -10 15 5 0 18 -7 28 -15z m56 -25 c8 -5 11 -10 5 -10 -5
0 -17 5 -25 10 -8 5 -10 10 -5 10 6 0 17 -5 25 -10z"/>
<path d="M1140 5134 c-19 -22 -17 -101 2 -121 21 -20 65 -20 85 0 19 18 21 84
4 115 -14 27 -71 31 -91 6z"/>
<path d="M2577 5132 c-19 -21 -22 -54 -7 -83 7 -13 21 -19 45 -19 24 0 38 6
45 19 35 66 -35 136 -83 83z"/>
<path d="M3007 5024 c-14 -14 -7 -43 13 -49 26 -8 62 12 58 33 -3 18 -57 29
-71 16z"/>
<path d="M4146 5154 c-9 -24 -9 -24 39 -24 25 0 45 4 45 8 0 31 -73 45 -84 16z"/>
<path d="M7515 4950 c-10 -11 -15 -23 -11 -27 11 -11 61 11 64 30 5 24 -30 22
-53 -3z"/>
<path d="M7445 4679 c-12 -19 5 -23 22 -6 16 16 16 17 1 17 -9 0 -20 -5 -23
-11z"/>
<path d="M7655 4620 c-3 -5 -1 -10 4 -10 6 0 11 5 11 10 0 6 -2 10 -4 10 -3 0
-8 -4 -11 -10z"/>
<path d="M7755 4579 c-4 -6 -5 -12 -2 -15 2 -3 7 2 10 11 7 17 1 20 -8 4z"/>
<path d="M7848 4543 c6 -2 18 -2 25 0 6 3 1 5 -13 5 -14 0 -19 -2 -12 -5z"/>
<path d="M7024 4388 c-104 -116 -214 -239 -244 -273 -67 -76 -378 -422 -403
-450 -122 -131 -218 -248 -211 -254 5 -5 214 -83 464 -174 365 -133 808 -295
1100 -403 19 -7 121 -44 225 -82 105 -38 255 -93 333 -122 l144 -52 31 38 c18
21 106 127 197 234 91 107 206 243 255 301 188 223 243 288 350 414 61 71 148
174 194 228 46 54 79 102 75 107 -5 4 -25 13 -44 18 -34 10 -120 36 -428 127
-85 25 -164 45 -176 45 -14 0 -26 -10 -34 -30 -16 -34 -30 -37 -75 -14 -44 23
-43 21 -17 49 13 14 20 28 17 32 -4 3 -116 40 -249 80 -419 128 -1300 393
-1308 393 -4 0 -92 -95 -196 -212z m87 -284 c12 -10 19 -31 19 -51 0 -24 4
-33 13 -29 127 53 207 37 207 -43 l0 -35 33 30 c59 56 79 29 56 -76 -15 -69
-8 -79 25 -35 23 30 26 39 15 46 -11 7 -8 14 13 36 l27 27 88 -28 c48 -16 93
-32 98 -36 6 -4 28 -11 50 -15 21 -3 52 -13 67 -21 23 -12 28 -21 28 -54 l0
-39 43 19 c96 44 187 16 187 -59 l0 -35 34 33 c25 25 39 31 55 26 12 -3 21
-11 21 -17 0 -8 -40 -57 -142 -172 -25 -27 -23 -33 12 -41 42 -9 46 -23 18
-52 -25 -24 -25 -24 -79 -9 -82 25 -86 28 -60 65 25 35 22 37 -21 15 -16 -8
-55 -16 -85 -17 -49 -1 -58 2 -80 27 -26 31 -25 63 3 119 17 32 17 31 -30 12
-31 -13 -36 -20 -36 -48 0 -46 -12 -59 -44 -51 -35 8 -38 15 -27 63 5 23 6 41
3 41 -2 0 -19 -16 -36 -36 -25 -29 -36 -35 -54 -30 -12 4 -22 11 -22 16 0 8
63 85 151 185 17 19 17 20 -15 22 -31 3 -40 -5 -116 -92 -45 -52 -86 -95 -92
-95 -5 0 -31 7 -57 16 l-48 15 14 76 c8 41 12 77 10 80 -3 2 -28 -23 -57 -56
-51 -59 -71 -70 -98 -53 -10 7 -8 15 8 35 25 31 24 32 -23 12 -92 -38 -173 -8
-165 62 5 38 9 37 -72 8 -76 -28 -150 -2 -150 52 0 128 226 264 311 187z
m1586 -124 c14 -36 55 -50 82 -26 21 19 41 21 41 4 0 -32 -122 -158 -154 -159
-11 0 -15 -3 -8 -6 9 -3 5 -12 -13 -29 -14 -13 -27 -24 -28 -24 -1 0 -17 4
-34 9 -37 11 -58 -5 -29 -21 16 -9 16 -11 0 -36 -16 -24 -16 -26 1 -39 24 -17
19 -21 -30 -25 l-40 -3 -1 60 c0 69 35 180 57 180 8 0 21 16 31 35 25 55 75
104 108 109 3 1 11 -12 17 -29z m-1667 -250 c0 -5 -4 -10 -10 -10 -5 0 -10 5
-10 10 0 6 5 10 10 10 6 0 10 -4 10 -10z m59 -51 c-11 -7 -11 -9 -1 -9 7 0 10
-5 6 -11 -12 -20 -23 13 -12 35 8 15 13 17 16 7 2 -7 -2 -17 -9 -22z m48 -6
c-9 -9 -19 -14 -23 -11 -10 10 6 28 24 28 15 0 15 -1 -1 -17z m46 -23 c-7 -25
-19 -34 -28 -20 -6 10 14 39 27 40 3 0 4 -9 1 -20z m67 6 c0 -3 -4 -8 -10 -11
-5 -3 -10 -1 -10 4 0 6 5 11 10 11 6 0 10 -2 10 -4z m25 -36 c3 -5 -1 -10 -10
-10 -9 0 -13 5 -10 10 3 6 8 10 10 10 2 0 7 -4 10 -10z m101 -12 c4 -7 4 -10
0 -6 -9 8 -46 -27 -47 -44 0 -10 -2 -10 -6 0 -3 7 5 24 18 38 26 28 26 28 35
12z m-126 -18 c0 -5 -2 -10 -4 -10 -3 0 -8 5 -11 10 -3 6 -1 10 4 10 6 0 11
-4 11 -10z m187 -22 c-3 -7 -5 -2 -5 12 0 14 2 19 5 13 2 -7 2 -19 0 -25z m93
-8 c0 -5 -5 -10 -11 -10 -5 0 -7 5 -4 10 3 6 8 10 11 10 2 0 4 -4 4 -10z
m-145 -10 c3 -5 1 -10 -4 -10 -6 0 -11 5 -11 10 0 6 2 10 4 10 3 0 8 -4 11
-10z m242 -42 c-3 -8 -6 -5 -6 6 -1 11 2 17 5 13 3 -3 4 -12 1 -19z m48 -19
c-5 -15 -4 -19 5 -14 9 5 9 1 -1 -16 l-13 -24 -6 25 c-8 28 -2 50 12 50 5 0 6
-10 3 -21z m-85 -12 c10 -4 8 -6 -7 -6 -16 -1 -23 5 -23 17 0 10 3 13 8 6 4
-6 14 -14 22 -17z"/>
<path d="M6952 4043 c-88 -43 -96 -137 -10 -118 18 4 50 6 70 6 30 0 41 5 58
29 20 29 20 29 0 35 -11 3 -20 14 -20 24 0 41 -42 52 -98 24z"/>
<path d="M7172 3973 c-44 -21 -74 -61 -70 -92 5 -46 85 -40 136 10 68 67 21
125 -66 82z"/>
<path d="M7706 3801 c-14 -15 -26 -32 -26 -39 0 -19 55 -14 73 6 42 46 -4 78
-47 33z"/>
<path d="M7884 3731 c-66 -40 -85 -103 -37 -122 60 -23 180 81 144 125 -18 22
-69 20 -107 -3z"/>
<path d="M666 4263 c-15 -39 54 -51 74 -13 12 23 4 30 -36 30 -21 0 -34 -6
-38 -17z"/>
<path d="M1446 4414 c-26 -25 -19 -34 29 -34 37 0 45 3 45 19 0 32 -48 42 -74
15z"/>
<path d="M2051 4386 c-7 -8 -11 -32 -9 -53 2 -31 8 -39 31 -47 39 -14 61 2 65
48 4 45 -11 66 -48 66 -15 0 -33 -6 -39 -14z"/>
<path d="M2518 4393 c-39 -46 -28 -128 20 -140 31 -7 53 5 70 41 33 66 -44
151 -90 99z"/>
<path d="M3655 4376 c-32 -49 6 -105 61 -92 28 7 41 47 28 85 -14 38 -66 42
-89 7z"/>
<path d="M702 3648 c-7 -7 -12 -40 -12 -79 0 -59 3 -68 20 -74 49 -16 80 20
80 94 0 57 -54 93 -88 59z"/>
<path d="M1344 3525 c-9 -23 3 -45 24 -45 28 0 56 25 49 44 -8 21 -65 22 -73
1z"/>
<path d="M2162 3668 c-25 -25 -13 -38 34 -38 41 0 45 2 42 23 -2 16 -11 23
-33 25 -17 2 -36 -3 -43 -10z"/>
<path d="M9695 3702 c-12 -8 -98 -111 -109 -129 -4 -8 -1 -13 8 -13 14 0 83
66 114 111 15 21 5 44 -13 31z"/>
<path d="M9804 3613 c-62 -76 -63 -78 -55 -92 6 -9 24 7 64 55 51 61 61 84 38
84 -4 0 -25 -21 -47 -47z"/>
<path d="M9940 3553 c-79 -99 -78 -97 -50 -88 14 4 37 22 51 39 15 17 39 45
53 61 31 35 32 45 9 45 -10 0 -38 -25 -63 -57z"/>
<path d="M9620 3356 c0 -2 7 -6 15 -10 8 -3 15 -1 15 4 0 6 -7 10 -15 10 -8 0
-15 -2 -15 -4z"/>
<path d="M9600 3336 c0 -2 7 -7 16 -10 8 -3 12 -2 9 4 -6 10 -25 14 -25 6z"/>
<path d="M9825 3280 c-3 -5 -1 -10 4 -10 6 0 11 5 11 10 0 6 -2 10 -4 10 -3 0
-8 -4 -11 -10z"/>
<path d="M6335 3139 c-4 -6 -5 -13 -2 -16 7 -7 27 6 27 18 0 12 -17 12 -25 -2z"/>
<path d="M6511 3076 c-8 -10 -9 -16 -1 -21 5 -3 13 1 16 10 9 22 -1 29 -15 11z"/>
<path d="M10628 3103 c7 -3 16 -2 19 1 4 3 -2 6 -13 5 -11 0 -14 -3 -6 -6z"/>
<path d="M6730 2980 c-9 -6 -10 -10 -3 -10 6 0 15 5 18 10 8 12 4 12 -15 0z"/>
<path d="M6891 2926 c-7 -8 -8 -17 -3 -19 4 -3 13 3 20 14 14 22 0 26 -17 5z"/>
<path d="M10299 2844 c-12 -14 -11 -16 5 -13 11 2 21 10 24 17 5 17 -13 15
-29 -4z"/>
<path d="M10460 2811 c0 -5 -16 -27 -36 -48 -54 -57 -59 -71 -30 -79 34 -8 87
26 112 71 19 36 19 37 0 51 -22 16 -46 19 -46 5z"/>
<path d="M7060 2865 c-8 -9 -8 -15 -2 -15 12 0 26 19 19 26 -2 2 -10 -2 -17
-11z"/>
<path d="M7195 2810 c-3 -5 1 -10 9 -10 8 0 18 5 21 10 3 6 -1 10 -9 10 -8 0
-18 -4 -21 -10z"/>
<path d="M5475 2519 c-4 -6 -5 -13 -2 -16 7 -7 27 6 27 18 0 12 -17 12 -25 -2z"/>
<path d="M5675 2439 c-4 -6 -5 -13 -2 -16 7 -7 27 6 27 18 0 12 -17 12 -25 -2z"/>
<path d="M5885 2349 c-4 -6 -5 -13 -2 -16 7 -7 27 6 27 18 0 12 -17 12 -25 -2z"/>
<path d="M5110 2131 c-16 -31 -12 -36 10 -11 23 26 24 30 10 30 -5 0 -14 -9
-20 -19z"/>
<path d="M5151 2111 c-20 -15 -21 -19 -7 -24 10 -4 20 1 27 14 15 28 8 31 -20
10z"/>
<path d="M5195 2097 c-4 -10 -5 -20 -2 -23 9 -9 47 6 47 18 0 7 -5 6 -14 -1
-11 -10 -15 -8 -19 6 -4 17 -4 17 -12 0z"/>
<path d="M8357 1693 c-12 -12 -7 -22 8 -17 8 4 15 10 15 15 0 11 -14 12 -23 2z"/>
<path d="M7636 1013 c-19 -25 -19 -26 -1 -39 26 -19 31 -18 56 17 18 26 19 33
8 40 -24 15 -43 9 -63 -18z"/>
<path d="M1965 945 c-3 -8 -7 -22 -10 -30 -3 -10 3 -15 20 -15 22 0 23 2 14
30 -12 34 -17 37 -24 15z"/>
<path d="M2540 920 c0 -54 14 -65 43 -32 21 23 22 46 1 66 -30 31 -44 20 -44
-34z"/>
<path d="M8356 731 c5 -5 20 -12 34 -15 24 -7 24 -6 6 8 -21 17 -57 23 -40 7z"/>
<path d="M8336 701 c5 -5 20 -12 34 -15 24 -7 24 -6 6 8 -21 17 -57 23 -40 7z"/>
<path d="M8310 681 c0 -4 11 -13 25 -19 14 -6 25 -8 25 -3 0 4 -11 13 -25 19
-14 6 -25 8 -25 3z"/>
<path d="M8530 615 c-7 -9 -10 -18 -7 -21 10 -11 37 5 37 21 0 19 -14 19 -30
0z"/>
<path d="M8722 538 c-16 -16 -15 -28 2 -28 16 0 29 27 17 34 -4 3 -13 0 -19
-6z"/>
<path d="M9114 386 c-3 -9 -10 -14 -14 -11 -4 3 -13 -1 -19 -9 -9 -11 -7 -15
9 -19 16 -4 23 1 31 20 5 14 7 28 5 31 -3 3 -8 -3 -12 -12z"/>
<path d="M9588 6005 c-3 -3 9 -54 26 -113 41 -140 54 -144 91 -25 15 48 31
101 36 116 7 24 6 28 -8 25 -17 -3 -22 -18 -53 -137 -6 -24 -15 -40 -20 -35
-4 5 -17 45 -28 89 -18 73 -29 94 -44 80z"/>
<path d="M9904 5999 c-3 -6 -13 -34 -21 -62 -47 -169 -46 -164 -19 -154 8 3
16 16 18 29 2 18 11 24 41 29 39 6 52 -2 58 -35 2 -11 10 -21 18 -24 10 -3 12
4 9 29 -7 45 -38 159 -49 182 -11 19 -44 23 -55 6z m47 -68 c15 -49 7 -71 -26
-71 -29 0 -33 24 -14 79 15 41 26 39 40 -8z"/>
<path d="M10150 5896 c0 -103 8 -141 23 -103 4 10 6 10 6 0 1 -9 18 -13 52
-13 36 0 49 4 46 13 -2 7 -21 12 -46 12 -49 0 -50 1 -53 119 -2 53 -7 81 -15
84 -10 3 -13 -24 -13 -112z"/>
<path d="M10364 5993 c21 -77 49 -172 57 -190 21 -55 41 -15 97 190 3 10 -1
17 -11 17 -9 0 -19 -17 -26 -47 -26 -104 -32 -123 -40 -123 -5 0 -14 21 -20
48 -28 110 -32 122 -47 122 -10 0 -14 -6 -10 -17z"/>
<path d="M10642 5935 l-2 -75 46 0 c28 0 43 4 39 10 -3 6 -17 8 -30 6 -14 -3
-26 1 -29 10 -9 24 5 44 33 45 25 1 25 2 -4 8 -21 4 -31 13 -33 29 -3 22 13
28 57 23 7 -2 10 2 6 8 -3 6 -23 11 -44 11 l-37 0 -2 -75z"/>
<path d="M10747 3044 c-9 -9 4 -34 18 -34 8 0 11 8 8 20 -5 20 -15 25 -26 14z"/>
<path d="M10798 3003 c7 -3 16 -2 19 1 4 3 -2 6 -13 5 -11 0 -14 -3 -6 -6z"/>
<path d="M10820 2979 c0 -5 5 -7 10 -4 6 3 10 8 10 11 0 2 -4 4 -10 4 -5 0
-10 -5 -10 -11z"/>
<path d="M10826 2944 c-7 -18 0 -34 15 -34 5 0 9 11 9 25 0 28 -15 34 -24 9z"/>
<path d="M10637 2742 c-10 -10 -17 -22 -17 -25 0 -12 35 -8 48 5 23 23 12 -8
-14 -40 -28 -34 -47 -42 -38 -17 10 24 -29 18 -45 -6 -11 -18 -11 -23 1 -30
16 -11 87 -9 94 3 11 18 21 7 16 -18 -3 -16 1 -30 9 -35 18 -11 20 -11 43 6
19 15 19 15 -3 46 -14 19 -21 40 -18 55 2 13 0 24 -4 24 -5 0 -9 7 -9 15 0 8
-9 19 -19 25 -25 13 -25 13 -44 -8z"/>
</g>
</svg>
