<?xml version="1.0" standalone="no"?>
<!DOCTYPE svg PUBLIC "-//W3C//DTD SVG 20010904//EN"
 "http://www.w3.org/TR/2001/REC-SVG-20010904/DTD/svg10.dtd">
<svg version="1.0" xmlns="http://www.w3.org/2000/svg"
 width="300.000000pt" height="168.000000pt" viewBox="0 0 300.000000 168.000000"
 preserveAspectRatio="xMidYMid meet">
<g transform="translate(0.000000,168.000000) scale(0.100000,-0.100000)"
fill="#000000" stroke="none">
<path d="M0 840 l0 -840 1080 0 1080 0 0 62 c0 127 35 257 63 229 8 -8 8 -14
-1 -23 -19 -19 -15 -24 31 -38 23 -6 55 -19 70 -27 28 -14 29 -16 24 -80 -2
-41 -9 -68 -18 -74 -10 -6 -3 -9 21 -9 29 -1 32 -2 17 -11 -9 -6 -15 -14 -12
-19 3 -5 149 -9 325 -10 l320 0 0 840 0 840 -1500 0 -1500 0 0 -840z m2470
734 c-18 -20 -6 -28 20 -14 29 15 35 7 17 -22 -16 -24 -24 -81 -15 -108 3 -8
10 -30 16 -48 13 -41 7 -58 -23 -66 -26 -7 -50 -40 -40 -56 10 -16 55 -12 55
5 0 8 12 22 28 32 34 22 46 35 50 53 5 20 22 40 35 40 5 0 16 -8 23 -17 15
-20 18 -37 7 -30 -5 3 -9 -7 -10 -21 0 -15 -13 -37 -28 -49 -28 -25 -46 -30
-42 -12 4 21 -24 21 -30 0 -3 -12 -11 -21 -19 -21 -7 0 -17 -15 -22 -32 -8
-33 -76 -91 -97 -84 -5 2 -15 -17 -20 -42 l-11 -45 -61 119 c-96 186 -135 288
-127 330 8 44 24 51 148 60 86 6 97 9 111 31 9 13 20 21 25 18 6 -4 10 0 11 7
0 10 2 10 6 0 3 -7 -1 -19 -7 -28z m-1822 -191 l3 -183 -265 0 -266 0 0 185 0
185 263 -2 262 -3 3 -182z m317 -135 l14 -33 1 33 c0 30 2 32 36 32 31 0 36
-3 31 -20 -3 -11 -1 -23 4 -26 5 -3 9 6 9 20 0 16 6 26 15 26 8 0 15 -8 15
-17 1 -17 1 -17 11 0 17 28 39 21 39 -14 0 -17 4 -28 10 -24 6 3 10 17 10 31
0 20 5 24 30 24 28 0 30 -2 30 -40 0 -22 -4 -40 -10 -40 -5 0 -10 14 -10 30 0
17 -4 30 -10 30 -5 0 -10 -8 -10 -18 0 -23 -19 -42 -42 -42 -12 0 -18 8 -18
23 l-1 22 -19 -24 c-16 -18 -23 -21 -34 -12 -9 8 -16 8 -20 2 -7 -10 -146 -10
-146 0 0 3 5 20 11 38 14 40 36 40 54 -1z m1609 -183 c-8 -55 -17 -119 -19
-142 -2 -23 -16 -74 -30 -114 -14 -40 -26 -82 -26 -93 -1 -15 -4 -12 -9 9 -7
29 -8 29 -10 -10 -1 -22 -5 -31 -7 -21 -4 15 -7 16 -15 5 -15 -22 0 28 24 83
12 26 24 46 27 43 4 -2 8 5 8 16 2 21 1 21 -64 -23 -23 -15 -48 -28 -57 -28
-24 0 -31 22 -10 33 10 6 48 38 83 72 l63 62 1 66 c0 39 -4 72 -11 79 -17 17
-15 28 6 28 11 0 27 9 37 20 10 11 19 19 21 17 1 -1 -4 -47 -12 -102z m227
-126 c19 -10 19 -11 -5 -40 -33 -39 -41 -88 -26 -160 13 -62 9 -475 -5 -511
-7 -19 -49 -26 -212 -34 -92 -5 -120 -3 -157 11 -25 10 -46 22 -46 26 0 5 -9
9 -20 9 -28 0 -65 40 -66 72 -1 16 0 28 3 28 16 0 43 -23 43 -37 0 -14 3 -14
21 3 16 15 24 16 39 6 22 -13 156 -37 264 -47 l69 -6 -7 63 c-4 35 -11 128
-15 208 -11 196 -33 247 -81 188 -17 -22 -17 -22 -24 -1 -9 29 8 68 57 127 45
55 68 75 107 93 32 15 37 15 61 2z m-1441 -145 c0 5 7 3 14 -4 8 -6 35 -10 60
-9 25 2 48 0 52 -4 4 -4 14 -1 22 5 22 19 54 20 74 2 24 -22 23 -29 -9 -58
-20 -18 -37 -24 -65 -23 -21 1 -38 5 -38 10 0 5 -6 4 -13 -2 -8 -6 -16 -8 -20
-5 -3 3 -3 -3 0 -15 3 -11 9 -19 13 -16 4 3 14 -3 21 -13 11 -14 11 -15 -1 -5
-9 8 -19 9 -32 2 -19 -10 -25 -39 -8 -39 6 0 10 7 10 15 0 8 5 15 10 15 6 0
10 -4 10 -10 0 -5 6 -10 14 -10 8 0 16 -7 20 -15 3 -8 1 -15 -4 -15 -6 0 -10
5 -10 11 0 5 -4 8 -9 5 -5 -4 -11 0 -14 6 -2 7 -11 -1 -20 -18 -9 -17 -13 -34
-10 -38 10 -10 43 -7 43 4 0 6 5 10 10 10 17 0 11 -17 -7 -25 -10 -4 -32 -9
-48 -11 -35 -4 -60 24 -50 57 9 28 26 23 21 -6 -3 -14 0 -25 5 -25 5 0 9 3 10
8 0 4 2 15 4 25 2 9 -6 24 -18 32 -19 13 -17 19 4 17 3 -1 6 6 6 14 0 10 -4
11 -11 4 -5 -5 -19 -10 -30 -10 -19 1 -20 2 -4 13 9 7 14 18 10 24 -4 6 -14
-4 -24 -23 -17 -32 -17 -34 0 -34 14 0 14 -2 3 -9 -19 -12 -45 14 -37 35 4 11
2 15 -8 11 -7 -3 -19 0 -25 6 -14 14 -34 16 -42 4 -3 -5 -9 1 -12 12 -3 12 -1
19 4 15 5 -3 9 0 9 5 0 13 -40 10 -55 -3 -8 -6 -1 -20 19 -40 30 -30 30 -31 8
-34 -17 -3 -22 -10 -22 -33 0 -54 -56 -47 -82 11 -7 16 -16 30 -20 30 -9 0 1
-28 18 -54 16 -23 74 -50 74 -35 0 6 9 7 21 4 14 -5 26 0 40 16 22 26 23 29 7
25 -7 -1 -10 -1 -6 1 4 3 5 18 1 34 -4 20 -1 29 7 29 7 0 10 -8 7 -19 -3 -13
3 -26 18 -37 13 -10 21 -24 18 -31 -5 -12 -7 -12 -14 -1 -6 9 -9 6 -9 -10 0
-13 -4 -20 -10 -17 -5 3 -15 3 -21 -1 -19 -11 -78 -14 -84 -3 -4 5 -10 7 -14
4 -5 -2 -16 4 -26 15 -9 10 -23 16 -31 13 -8 -3 -14 0 -14 7 0 6 5 8 10 5 16
-10 12 11 -5 25 -23 19 -18 35 20 55 19 11 33 21 30 23 -2 2 -13 -2 -25 -8
-29 -16 -47 7 -22 27 9 7 13 13 9 13 -12 0 31 43 46 46 6 1 31 6 53 12 37 8
45 7 70 -14 16 -13 35 -23 42 -24 8 0 10 -5 6 -12 -6 -9 -3 -9 9 0 9 8 16 17
15 20 -1 4 2 18 6 31 6 18 10 21 17 10 5 -8 9 -10 9 -5z m1054 -295 l40 -21
-53 -25 c-29 -14 -55 -31 -58 -39 -3 -8 -15 -14 -27 -14 -16 0 -18 -2 -7 -9
11 -7 9 -10 -8 -16 -21 -6 -22 -7 -4 -21 29 -22 -6 -18 -44 5 -27 17 -32 27
-38 74 -6 43 -2 67 15 116 l23 61 61 -45 c33 -25 79 -55 100 -66z m-388 62
c13 -10 20 -22 16 -26 -4 -5 -2 -5 5 -1 6 3 23 1 37 -5 l26 -12 -25 -33 c-14
-18 -25 -40 -25 -48 0 -9 -4 -16 -9 -16 -9 0 -26 -48 -22 -65 1 -5 -7 -1 -19
10 -12 11 -20 28 -18 41 1 11 -3 28 -10 37 -7 8 -12 21 -11 29 1 7 -1 21 -6
31 -12 28 3 33 37 14 17 -10 33 -16 35 -14 2 3 -17 17 -42 31 -51 30 -63 63
-18 51 14 -3 37 -14 49 -24z"/>
<path d="M130 1385 l0 -165 250 0 250 0 0 165 0 165 -250 0 -250 0 0 -165z"/>
</g>
</svg>
